<?xml version="1.0" standalone="no"?>
<!DOCTYPE svg PUBLIC "-//W3C//DTD SVG 20010904//EN"
 "http://www.w3.org/TR/2001/REC-SVG-20010904/DTD/svg10.dtd">
<svg version="1.0" xmlns="http://www.w3.org/2000/svg"
 width="260.000000pt" height="260.000000pt" viewBox="0 0 260.000000 260.000000"
 preserveAspectRatio="xMidYMid meet">
<metadata>
Created by potrace 1.11, written by Peter Selinger 2001-2013
</metadata>
<g transform="translate(0.000000,260.000000) scale(0.100000,-0.100000)"
fill="#000000" stroke="none">
<path d="M1284 2523 c-9 -34 -9 -34 -17 -53 -4 -8 -65 -181 -137 -385 -72
-203 -141 -397 -153 -430 l-22 -60 -452 0 c-249 0 -453 -1 -453 -2 0 -1 26
-22 57 -45 32 -24 60 -45 63 -48 3 -3 115 -88 250 -190 135 -101 272 -205 306
-231 l61 -48 -38 -143 c-21 -79 -81 -298 -132 -488 -52 -190 -93 -346 -92
-348 2 -2 172 127 379 285 208 158 383 289 391 291 7 2 24 -6 37 -17 52 -44
733 -560 735 -557 2 2 -13 61 -33 132 -19 71 -44 161 -54 199 -36 140 -82 312
-126 469 -24 88 -44 165 -44 171 0 6 29 33 65 59 36 26 71 53 78 60 7 6 136
104 287 217 151 113 280 212 287 220 10 12 -53 14 -439 14 l-450 0 -23 65
c-13 36 -83 232 -155 435 -147 414 -162 455 -165 455 -2 0 -6 -12 -11 -27z
m31 -643 c2 -8 33 -123 69 -254 36 -132 66 -241 66 -244 0 -2 69 -1 153 2 205
8 327 9 332 4 3 -2 -26 -28 -63 -56 -37 -28 -79 -62 -93 -74 -15 -13 -72 -59
-128 -103 -80 -62 -101 -84 -98 -100 3 -11 35 -105 71 -210 37 -104 73 -207
80 -227 8 -21 11 -38 8 -38 -5 0 -69 51 -122 96 -14 12 -85 72 -159 133 -114
95 -136 110 -149 99 -9 -7 -101 -84 -205 -171 -105 -86 -192 -156 -194 -154
-3 3 125 379 156 459 10 26 5 31 -189 188 -110 88 -200 163 -200 165 0 2 6 3
13 0 23 -7 487 -15 485 -7 -2 8 1 16 53 207 22 77 51 187 66 244 27 105 32
110 48 41z"/>
</g>
</svg>
