<svg width="682" height="153" viewBox="0 0 682 153" fill="none" xmlns="http://www.w3.org/2000/svg">
<path fill-rule="evenodd" clip-rule="evenodd" d="M0 152.672H30.3728V91.5288H0V152.672Z" fill="black" fill-opacity="0.4"/>
<path fill-rule="evenodd" clip-rule="evenodd" d="M0 61.1427H30.3728V0H0V61.1427Z" fill="black" fill-opacity="0.6"/>
<path fill-rule="evenodd" clip-rule="evenodd" d="M0 61.1426V91.7139H60.5605V152.857H90.9333V91.7139V61.1426H0Z" fill="black"/>
<path fill-rule="evenodd" clip-rule="evenodd" d="M160.373 0H178.248V57.6236H178.91C184.868 44.3768 200.096 39.0781 213.337 39.0781C241.805 39.0781 250.412 55.6366 250.412 78.8185V151.014H232.536V76.8315C232.536 63.5847 223.93 54.9743 210.688 54.9743C188.841 54.9743 178.248 69.5458 178.248 89.416V151.014H160.373V0Z" fill="black"/>
<path fill-rule="evenodd" clip-rule="evenodd" d="M341.777 94.0519C335.157 99.3506 321.254 99.3506 309.337 101.338C297.42 103.325 287.489 107.961 287.489 121.208C287.489 133.13 297.42 137.104 308.675 137.104C332.509 137.104 341.777 122.533 341.777 112.597V94.0519ZM370.908 150.351C367.597 152.338 363.625 153 358.329 153C349.06 153 343.101 147.701 343.101 135.779C333.171 147.701 319.93 153 304.703 153C284.841 153 268.952 144.39 268.952 122.533C268.952 98.0259 287.489 92.7272 306.027 88.7532C325.888 84.7791 342.439 86.1038 342.439 72.857C342.439 56.9608 329.86 54.9738 318.606 54.9738C303.378 54.9738 292.124 59.6102 291.461 75.5064H273.586C274.91 48.3504 295.434 39.0776 319.268 39.0776C339.129 39.0776 360.315 43.714 360.315 68.883V125.182C360.315 133.792 360.315 137.104 366.273 137.104C367.597 137.104 369.584 137.104 371.57 135.779L370.908 150.351Z" fill="black"/>
<path fill-rule="evenodd" clip-rule="evenodd" d="M430.492 151.012H411.292L370.907 41.7261H390.769L421.223 133.129H421.885L451.677 41.7261H470.215L430.492 151.012Z" fill="black"/>
<path fill-rule="evenodd" clip-rule="evenodd" d="M548.336 94.0519C541.715 99.3506 527.812 99.3506 515.895 101.338C503.978 103.325 494.047 107.961 494.047 121.208C494.047 133.13 503.978 137.104 515.233 137.104C539.067 137.104 548.336 122.533 548.336 112.597V94.0519ZM577.466 150.351C574.156 152.338 570.183 153 564.887 153C555.618 153 549.66 147.701 549.66 135.779C539.729 147.701 526.488 153 511.261 153C491.399 153 475.51 144.39 475.51 122.533C475.51 98.0259 494.048 92.7272 512.585 88.7532C532.447 84.7791 548.998 86.1038 548.998 72.857C548.998 56.9608 536.419 54.9738 525.164 54.9738C509.937 54.9738 498.682 59.6102 498.02 75.5064H479.482C480.806 48.3504 501.33 39.0776 525.164 39.0776C544.363 39.0776 566.211 43.714 566.211 68.883V125.182C566.211 133.792 566.211 137.104 572.17 137.104C573.494 137.104 575.48 137.104 577.466 135.779V150.351Z" fill="black"/>
<path fill-rule="evenodd" clip-rule="evenodd" d="M603.949 116.571C604.611 132.467 618.514 137.766 633.08 137.766C644.334 137.766 659.562 135.116 659.562 121.207C659.562 107.298 641.686 104.649 623.811 100.675C605.936 96.7005 588.06 90.7394 588.06 69.5445C588.06 47.6873 609.908 38.4146 628.445 38.4146C652.279 38.4146 671.479 45.7003 672.803 72.8562H654.927C653.603 58.9471 641.686 54.3107 629.769 54.3107C619.177 54.3107 606.598 56.9601 606.598 68.2199C606.598 80.8043 625.797 83.4537 642.348 87.4277C660.224 91.4018 678.099 97.3628 678.099 118.558C678.099 144.389 654.265 152.999 631.756 152.999C607.26 152.999 586.736 143.064 586.074 115.908H603.949V116.571Z" fill="black"/>
</svg>
