<svg id="Layer_1" data-name="Layer 1" xmlns="http://www.w3.org/2000/svg" width="288.73" height="53.99" viewBox="0 0 288.73 53.99"><title>John Deere logo - Brandlogos.net</title><path d="M405.88,396.38V376.55h-4.57v13.38l-11.92-13.38h-4.53v19.83h4.57V382.87l11.88,13.52Zm94.39-11.3a2.21,2.21,0,0,0,2.53-2.26c0-1.41-.92-2.21-2.53-2.21h-8.35v4.46Zm7.81,11.3h-5.53L497,389.13h-5.37v7.25H487.1V376.55H500c4.45,0,7.09,2.38,7.09,6.36a5.9,5.9,0,0,1-4.78,5.91Zm-79.78-24.77c8.75,0,14,4.7,14,12.56,0,5.64-3.66,12.2-14,12.2h-11V371.62Zm-6.45,4.1V392.3h6.45c3.5,0,9.39-1.09,9.39-8.37,0-5.22-3.42-8.21-9.39-8.21Zm92.89,16.61V388.5h10.55v-4.06H514.73v-3.83h13.63v-4.06H510.17v19.83h18.19v-4.06Zm-44.3,0V388.5H481v-4.06H470.43v-3.83h13.63v-4.06h-18.2v19.83h18.2v-4.06Zm-21.24,0V388.5h10.54v-4.06H449.19v-3.83h13.63v-4.06H444.62v19.83h18.19v-4.06Zm-72.62-15.77v7.89H364.68v-7.89h-4.57v19.83h4.57V388.5h11.89v7.88h4.57V376.55ZM345.68,392.8c-2.67,0-7.17-.83-7.17-6.39,0-4,2.62-6.27,7.17-6.27s7.16,2.29,7.16,6.27C352.83,392,348.35,392.8,345.68,392.8Zm-11.73-6.18c0,4.71,3.07,10.23,11.73,10.23s11.73-5.52,11.73-10.23c0-6.6-4.39-10.54-11.73-10.54S333.95,380,333.95,386.62Zm-20.09,5a18.24,18.24,0,0,0,5.5.94c3.1,0,5-.43,6.1-1.52.9-.9,1.25-2.41,1.21-4.64V371.64h4.57v15.44c-.07,6.84-3.37,9.76-11.05,9.76a31.11,31.11,0,0,1-6.33-.6Z" transform="translate(-239.63 -357)" style="fill:#367c2b"/><path d="M294.82,362.84a58.47,58.47,0,0,0-51,0,55.37,55.37,0,0,0,0,42.25,58.48,58.48,0,0,0,51,0,55.34,55.34,0,0,0,0-42.32Z" transform="translate(-239.63 -357)" style="fill:#367c2b"/><path d="M261.23,377.88a24.24,24.24,0,0,0-2.43,8.3l-.73.07a28.18,28.18,0,0,0-7.78,1.43l.18,1a35.51,35.51,0,0,0,10.59,8.37l.15-.16-1.37-2.18a4.29,4.29,0,0,0-1.21-.44c-2.86-1-4.86-4.69-5.19-5.33a19.86,19.86,0,0,1,6.42,1.34,25.65,25.65,0,0,0,3.85,1.06,24.16,24.16,0,0,0,6.77-.33,27.24,27.24,0,0,1,5.08-.09,14.67,14.67,0,0,0,3.63,3.25,78.6,78.6,0,0,0,8.54,3,24.56,24.56,0,0,1,3.94,5.24,54,54,0,0,1-44.76,0,51.16,51.16,0,0,1,0-36.84,54,54,0,0,1,44.8,0,51.19,51.19,0,0,1,.57,35.35,52.75,52.75,0,0,0-3.07-4.94,37.41,37.41,0,0,1-3.85-2.27,6,6,0,0,1-1.23-2.82,12.22,12.22,0,0,0-2.7-5.58l1.84-.75c-.51-3.55-4.72-5.86-4.77-5.89l-.24.11a8.14,8.14,0,0,1,2.08,4.78,4,4,0,0,1-.12,1c-.48-.18-3.59-1.18-10.66-.92a4.74,4.74,0,0,1-3.41-.87,2.77,2.77,0,0,1-.75-2.08h0a24.79,24.79,0,0,1,1.19-6.22l1.85.22a10.39,10.39,0,0,0,3.17-2.44l-.1-.11c-1.88.24-4.33.74-4.33.74a10.25,10.25,0,0,0,.66-3.44,5,5,0,0,0-2.77-4.79l-.23.11a5.25,5.25,0,0,1,1.28,3.26,4.19,4.19,0,0,1-.35,1.66,4.13,4.13,0,0,0-1.87-.35,5.32,5.32,0,0,0-3.45-3.35l-.21.13a4.91,4.91,0,0,1,2,3.27,9.45,9.45,0,0,0-2.48.52,3.92,3.92,0,0,0-3-1.55l-.18.14s1.64.57,2,1.82a14.25,14.25,0,0,0-2.76,1.75l.07.27c4.21-1.64,8.15-2.11,9.15-.92a1.08,1.08,0,0,1,.26.72,2.52,2.52,0,0,1-.4,1.22,62.13,62.13,0,0,0-7.77,2.31l.34,1.08,3.56.73S261.41,377.51,261.23,377.88ZM293,364.44a56.17,56.17,0,0,0-47.37,0,53.22,53.22,0,0,0,0,39.06,56.16,56.16,0,0,0,47.4,0,53.27,53.27,0,0,0,0-39.12Z" transform="translate(-239.63 -357)" style="fill:#ffde00"/></svg>