<svg width="422" height="150" viewBox="0 0 422 150" fill="none" xmlns="http://www.w3.org/2000/svg">
<path d="M46.9834 149.938C34.4427 149.44 24.1825 146.009 16.1599 139.635C14.6288 138.418 10.9804 134.767 9.75642 133.227C6.50314 129.137 4.29134 125.155 2.81608 120.738C-1.72348 107.141 0.612872 89.2985 9.49874 69.7166C17.1069 52.952 28.8466 36.3248 49.3284 13.2963C52.3454 9.90768 61.3301 -0.00244141 61.388 -0.00244141C61.4095 -0.00244141 60.9199 0.845769 60.3036 1.87867C54.9781 10.7989 50.4214 21.306 47.939 30.4023C43.9513 44.9981 44.4323 57.5237 49.3477 67.2363C52.7384 73.9276 58.5514 79.7234 65.088 82.9272C76.5314 88.534 93.2852 88.9979 113.745 84.2844C115.154 83.958 184.957 65.4282 268.864 43.1062C352.77 20.782 421.433 2.53146 421.444 2.54649C421.467 2.56585 226.504 85.9915 125.296 129.272C109.268 136.124 104.982 137.855 97.4469 140.501C78.1848 147.265 60.9306 150.492 46.9834 149.938Z" fill="#666666"/>
</svg>
