<svg width="1180" height="155" viewBox="0 0 1180 155" fill="none" xmlns="http://www.w3.org/2000/svg">
<path d="M1102.85 4.12026L1087.35 39.4367H1042.42V151.076H1007.11V39.6329H968.847V151.076H933.139L872.708 63.7658V151.076H836.999V4.31645H872.708L933.139 88.6835V4.31645H1102.85V4.12026ZM753.613 0C796.582 0 831.506 34.5316 831.506 77.1075C831.506 119.683 796.582 154.215 753.613 154.215C710.645 154.215 675.721 119.683 675.721 77.1075C675.721 34.7278 710.645 0 753.613 0ZM753.613 118.506C776.569 118.506 795.405 99.867 795.405 77.1075C795.405 54.3481 776.765 35.7089 753.613 35.7089C730.658 35.7089 711.822 54.3481 711.822 77.1075C711.822 99.867 730.658 118.506 753.613 118.506ZM678.076 150.487H636.284L604.5 103.595H585.664V150.487H549.955V39.0443H466.177V68.2784H534.848L519.544 103.595H467.158L466.177 150.487H430.468V5.68986L416.342 39.0443H364.937V150.487H329.228V39.0443H292.734V86.5253C292.734 131.063 267.424 152.842 227.595 152.842C187.766 152.842 163.437 130.867 163.437 87.5063V3.53165H199.146V86.7215C199.146 108.304 210.133 119.487 227.987 119.487C245.842 119.487 257.025 108.892 257.025 87.8987V3.72783H617.645C636.481 3.72783 651.196 9.02531 660.81 18.6392C669.05 26.8797 673.563 38.2595 673.563 52.1899V52.5822C673.563 76.3227 660.614 91.2341 641.778 98.1012L678.076 150.487ZM638.05 54.7405C638.05 43.3607 630.398 37.4747 618.038 37.4747H585.468V72.0063H618.43C630.791 72.0063 637.854 65.1392 637.854 54.9367V54.7405H638.05ZM79.2659 0C122.234 0 157.158 34.5316 157.158 77.1075C157.158 119.683 122.234 154.215 79.2659 154.215C36.2976 154.215 1.37354 119.683 1.37354 77.1075C1.37354 34.7278 36.2976 0 79.2659 0ZM79.2659 118.506C102.222 118.506 121.057 99.867 121.057 77.1075C121.057 54.3481 102.222 35.7089 79.2659 35.7089C56.3102 35.7089 37.4748 54.3481 37.4748 77.1075C37.4748 99.867 56.114 118.506 79.2659 118.506Z" fill="black"/>
<mask id="mask0_261_6092" style="mask-type:luminance" maskUnits="userSpaceOnUse" x="1066" y="4" width="113" height="148">
<path d="M1130.52 4.12012L1066.56 151.076H1114.63L1178.59 4.12012H1130.52Z" fill="white"/>
</mask>
<g mask="url(#mask0_261_6092)">
<path d="M992.98 77.6957L1122.47 -51.7979L1251.97 77.6957L1122.47 207.189L992.98 77.6957Z" fill="url(#paint0_linear_261_6092)"/>
</g>
<defs>
<linearGradient id="paint0_linear_261_6092" x1="1057.88" y1="142.399" x2="1187.38" y2="12.8987" gradientUnits="userSpaceOnUse">
<stop stop-color="#5D1A82"/>
<stop offset="0.4797" stop-color="#812D8A"/>
<stop offset="1" stop-color="#AC4394"/>
</linearGradient>
</defs>
</svg>
