<svg width="735" height="169" viewBox="0 0 735 169" fill="none" xmlns="http://www.w3.org/2000/svg">
<path d="M54.5585 113.51V160.084H6.65356V8.51663C6.65356 8.51663 27.0132 8.38356 36.9934 8.51663C59.8813 8.6497 82.7692 7.98435 105.657 9.44813C141.32 11.7103 152.365 40.3206 149.57 66.0033C146.376 96.0773 129.077 112.179 98.8706 113.377C84.4992 114.042 54.5585 113.51 54.5585 113.51ZM54.8247 80.508C54.8247 80.508 74.652 80.7741 84.3661 80.3749C95.1447 79.9757 101.399 73.056 101.798 61.8781C102.197 50.434 96.7415 42.982 85.9629 42.0505C75.8496 41.2521 54.8247 41.9174 54.8247 41.9174V80.508ZM263.611 122.425V160.217H157.687V8.51663H205.06V122.425H263.611ZM273.458 8.51663H320.564V160.217H273.458V8.51663ZM365.542 9.31506C373.127 9.31506 378.183 13.4403 378.183 21.6906C378.183 29.941 372.86 34.0662 365.808 34.0662H352.634V51.0993L347.045 51.2324V9.44813L365.542 9.31506ZM363.945 29.4088C369.268 29.4088 372.727 27.1466 372.727 21.6906C372.727 16.5009 369.534 13.9725 363.679 13.9725H352.634V29.2757H363.945V29.4088ZM404.93 9.31506C412.116 9.31506 417.439 13.3072 417.439 20.2269C417.439 25.5497 415.043 29.4088 410.12 30.8725V31.0056C412.914 31.5379 414.777 32.8686 415.709 36.0623C416.241 37.5261 416.374 39.6552 416.507 42.1836C416.773 47.1072 417.306 49.2363 418.769 51.0993H412.515C411.85 50.3009 411.584 48.8371 411.584 47.9056L411.318 42.982C411.318 42.4497 410.918 38.9899 409.987 36.7277C409.055 34.4655 407.059 33.2678 404.132 33.2678H390.426V51.0993H384.837V9.31506H404.93ZM402.402 28.6103C408.523 28.6103 411.85 26.3481 411.85 21.1584C411.85 16.634 409.055 13.9725 404.531 13.9725H390.559V28.6103H402.402ZM442.589 9.31506L458.956 51.0993H452.835L448.311 38.4576H430.613L425.955 51.0993H420.233L436.468 9.31506H442.589ZM439.395 14.3718L432.342 33.8001H446.448L439.395 14.3718ZM497.946 21.9568H492.357C491.159 16.2347 486.768 13.041 480.647 13.041C471.199 13.041 466.541 20.493 466.541 29.941C466.541 40.5867 471.598 47.5064 480.78 47.5064C487.699 47.5064 492.357 42.7159 492.889 35.397H498.478C497.28 46.1757 490.76 52.1639 480.381 52.1639C474.392 52.1639 469.735 50.1678 466.275 46.3088C462.815 42.3166 461.085 37.1269 461.085 30.4733C461.085 24.219 462.815 18.7631 466.408 14.6379C470.001 10.5127 475.058 8.51663 480.913 8.51663C489.828 8.38356 496.748 13.4403 497.946 21.9568ZM531.878 9.31506V13.9725H517.906V51.0993H512.317V13.9725H498.345V9.31506H531.878ZM542.391 9.31506V51.0993H536.802V9.31506H542.391ZM581.114 21.5576H575.791C575.126 15.8355 571.4 13.041 565.412 13.041C559.424 13.041 556.097 15.5694 556.097 20.2269C556.097 23.8198 559.424 25.1505 563.017 26.2151C565.412 26.8804 567.807 27.2796 569.404 27.6788C578.053 29.5418 582.711 32.7355 582.711 39.7883C582.711 43.6474 580.981 46.8411 577.787 48.9702C574.594 51.2324 570.335 52.1639 566.343 52.1639C556.363 52.1639 549.044 47.1072 549.044 37.393H554.367C554.367 43.9135 559.557 47.5064 566.476 47.5064C573.263 47.5064 577.122 44.845 577.122 39.9214C577.122 36.0623 574.327 33.8001 565.412 32.0702C559.424 30.8725 555.565 29.5418 553.436 27.6788C551.44 25.8158 550.375 23.5536 550.375 20.6261C550.375 12.7749 557.028 8.38356 565.545 8.38356C574.993 8.38356 580.848 13.041 581.114 21.5576ZM595.486 9.31506V51.0993H589.897V9.31506H595.486ZM610.655 9.31506L632.612 43.2481H632.745V9.31506H638.068V51.0993H631.947L610.123 17.5655H609.99V51.0993H604.667V9.31506H610.655ZM682.912 22.2229H677.323C676.259 16.3678 671.734 13.041 664.948 13.041C655.367 13.041 650.576 21.0253 650.576 30.7395C650.576 35.53 651.907 39.5221 654.568 42.7159C657.097 45.9096 660.823 47.5064 664.948 47.5064C672.932 47.5064 678.388 42.3166 678.388 34.5985V33.8001H665.081V29.1426H683.444V51.0993H679.985L678.521 45.9096C675.46 49.7686 670.537 52.1639 665.081 52.1639C659.359 52.1639 654.568 50.1678 650.842 46.0426C646.983 41.9174 645.253 36.4615 645.253 31.0056C645.253 24.7513 646.983 18.8962 650.576 14.6379C654.169 10.3796 659.226 8.25049 665.214 8.25049C674.795 8.38356 681.581 13.1741 682.912 22.2229ZM352.634 63.3418V100.469H374.723V105.126L347.045 105.259V63.4749L352.634 63.3418Z" fill="#E4002B"/>
<path d="M397.079 63.3418L413.447 105.126H407.326L402.801 92.4843H385.103L380.446 105.126H374.724L391.091 63.3418H397.079ZM393.886 68.3985L386.833 87.8269H400.938L393.886 68.3985ZM417.971 63.3418L426.221 98.0733H426.355L435.669 63.3418H441.658L450.972 98.0733H451.105L459.622 63.3418H465.211L453.9 105.126H448.045L438.464 69.9953H438.331L428.75 105.126H422.895L412.249 63.3418H417.971ZM352.9 117.635V159.419L347.311 159.552V117.768L352.9 117.635ZM368.07 117.635L390.027 151.568H390.16V117.635H395.482V159.419H389.361L367.538 125.885H367.405V159.419H362.082V117.635H368.07ZM433.939 129.877H428.617C427.951 124.155 424.225 121.361 418.237 121.361C412.249 121.361 408.922 123.889 408.922 128.547C408.922 132.139 412.249 133.47 415.842 134.535C418.237 135.2 420.633 135.599 422.229 135.999C430.879 137.862 435.536 141.055 435.536 148.108C435.536 151.967 433.806 155.161 430.613 157.29C427.419 159.552 423.161 160.484 419.169 160.484C409.189 160.484 401.87 155.427 401.87 145.713H407.193C407.193 152.233 412.382 155.826 419.302 155.826C426.088 155.826 429.947 153.165 429.947 148.241C429.947 144.382 427.153 142.12 418.237 140.39C412.249 139.192 408.39 137.862 406.261 135.999C404.265 134.136 403.2 131.873 403.2 128.946C403.2 121.095 409.854 116.703 418.37 116.703C427.818 116.703 433.673 121.361 433.939 129.877ZM471.332 117.635V122.292H457.36V159.419H451.771V122.292H437.799V117.635H471.332ZM481.844 117.635V159.419H476.256V117.635H481.844ZM520.168 117.635V122.292H506.196V159.419H500.607V122.292H486.635V117.635H520.168ZM530.149 117.635V144.382C530.149 151.169 533.875 155.693 541.726 155.693C549.045 155.693 552.637 151.302 552.637 144.515V117.635H558.226V144.515C558.226 154.229 552.771 160.484 541.726 160.484C529.883 160.484 524.56 154.495 524.56 144.382V117.635H530.149ZM596.018 117.635V122.292H582.046V159.419H576.457V122.292H562.485V117.635H596.018ZM629.552 117.635V122.292H606.264V135.599H627.955V140.257H606.264V154.762H629.685V159.419H600.675V117.635H629.552Z" fill="#E4002B"/>
<path d="M702.739 21.2916C703.538 21.8238 704.735 22.2231 705.933 22.2231C707.796 22.2231 708.861 21.2916 708.861 19.8278C708.861 18.4971 708.062 17.8317 706.199 17.0333C703.937 16.2349 702.606 15.0372 702.606 13.1742C702.606 11.0451 704.336 9.44824 707.131 9.44824C708.594 9.44824 709.526 9.71438 710.191 10.1136L709.659 11.5774C709.26 11.3112 708.328 10.912 706.998 10.912C705.135 10.912 704.336 11.9766 704.336 13.0412C704.336 14.3719 705.135 14.9042 707.131 15.7026C709.526 16.6341 710.59 17.6986 710.59 19.6947C710.59 21.8238 708.994 23.6868 705.8 23.6868C704.469 23.6868 703.005 23.2876 702.34 22.7553L702.739 21.2916ZM724.696 17.4325C724.563 15.5695 724.43 13.1742 724.43 11.4443C723.897 13.0412 723.365 14.7711 722.7 16.6341L720.304 23.2876H718.974L716.712 16.7671C716.046 14.7711 715.514 13.0412 715.115 11.4443C715.115 13.1742 714.982 15.4364 714.849 17.5656L714.449 23.5538H712.719L713.651 9.71438H715.913L718.308 16.3679C718.841 18.0979 719.373 19.5616 719.639 21.0254C720.038 19.6947 720.438 18.0979 721.103 16.3679L723.498 9.71438H725.76L726.559 23.5538H724.829L724.696 17.4325Z" fill="#E4002B"/>
</svg>
